solid OpenSCAD_Model
  facet normal 0 0 -1
    outer loop
      vertex -22 0 -2
      vertex -21.5192 4.57406 -2
      vertex -21.5192 -4.57406 -2
    endloop
  endfacet
  facet normal 0 0 -1
    outer loop
      vertex -21.5192 -4.57406 -2
      vertex -21.5192 4.57406 -2
      vertex -20.098 8.94821 -2
    endloop
  endfacet
  facet normal 0 0 -1
    outer loop
      vertex -21.5192 -4.57406 -2
      vertex -20.098 8.94821 -2
      vertex -17.7984 12.9313 -2
    endloop
  endfacet
  facet normal 0 0 -1
    outer loop
      vertex -21.5192 -4.57406 -2
      vertex -17.7984 12.9313 -2
      vertex -14.7209 16.3492 -2
    endloop
  endfacet
  facet normal 0 0 -1
    outer loop
      vertex -21.5192 -4.57406 -2
      vertex -14.7209 16.3492 -2
      vertex -11 19.0526 -2
    endloop
  endfacet
  facet normal 0 0 -1
    outer loop
      vertex -21.5192 -4.57406 -2
      vertex -11 19.0526 -2
      vertex -6.79837 20.9232 -2
    endloop
  endfacet
  facet normal 0 0 -1
    outer loop
      vertex -21.5192 -4.57406 -2
      vertex -6.79837 20.9232 -2
      vertex -2.29963 21.8795 -2
    endloop
  endfacet
  facet normal 0 0 -1
    outer loop
      vertex -21.5192 -4.57406 -2
      vertex -2.29963 21.8795 -2
      vertex 2.29963 21.8795 -2
    endloop
  endfacet
  facet normal 0 0 -1
    outer loop
      vertex -21.5192 -4.57406 -2
      vertex 2.29963 21.8795 -2
      vertex 6.79837 20.9232 -2
    endloop
  endfacet
  facet normal 0 0 -1
    outer loop
      vertex -21.5192 -4.57406 -2
      vertex 6.79837 20.9232 -2
      vertex 11 19.0526 -2
    endloop
  endfacet
  facet normal 0 0 -1
    outer loop
      vertex -21.5192 -4.57406 -2
      vertex 11 19.0526 -2
      vertex 14.7209 16.3492 -2
    endloop
  endfacet
  facet normal 0 0 -1
    outer loop
      vertex -21.5192 -4.57406 -2
      vertex 14.7209 16.3492 -2
      vertex 17.7984 12.9313 -2
    endloop
  endfacet
  facet normal 0 0 -1
    outer loop
      vertex -21.5192 -4.57406 -2
      vertex 17.7984 12.9313 -2
      vertex 20.098 8.94821 -2
    endloop
  endfacet
  facet normal 0 0 -1
    outer loop
      vertex -21.5192 -4.57406 -2
      vertex 20.098 8.94821 -2
      vertex 21.5192 4.57406 -2
    endloop
  endfacet
  facet normal 0 0 -1
    outer loop
      vertex -21.5192 -4.57406 -2
      vertex 21.5192 4.57406 -2
      vertex 22 0 -2
    endloop
  endfacet
  facet normal 0 0 -1
    outer loop
      vertex -21.5192 -4.57406 -2
      vertex 22 0 -2
      vertex 21.5192 -4.57406 -2
    endloop
  endfacet
  facet normal 0 0 -1
    outer loop
      vertex -21.5192 -4.57406 -2
      vertex 21.5192 -4.57406 -2
      vertex 20.098 -8.94821 -2
    endloop
  endfacet
  facet normal 0 0 -1
    outer loop
      vertex -21.5192 -4.57406 -2
      vertex 20.098 -8.94821 -2
      vertex 17.7984 -12.9313 -2
    endloop
  endfacet
  facet normal 0 0 -1
    outer loop
      vertex -21.5192 -4.57406 -2
      vertex 17.7984 -12.9313 -2
      vertex 14.7209 -16.3492 -2
    endloop
  endfacet
  facet normal 0 0 -1
    outer loop
      vertex -21.5192 -4.57406 -2
      vertex 14.7209 -16.3492 -2
      vertex 11 -19.0526 -2
    endloop
  endfacet
  facet normal 0 0 -1
    outer loop
      vertex -21.5192 -4.57406 -2
      vertex 11 -19.0526 -2
      vertex 6.79837 -20.9232 -2
    endloop
  endfacet
  facet normal 0 0 -1
    outer loop
      vertex -21.5192 -4.57406 -2
      vertex 6.79837 -20.9232 -2
      vertex 2.29963 -21.8795 -2
    endloop
  endfacet
  facet normal 0 0 -1
    outer loop
      vertex -21.5192 -4.57406 -2
      vertex 2.29963 -21.8795 -2
      vertex -2.29963 -21.8795 -2
    endloop
  endfacet
  facet normal 0 0 -1
    outer loop
      vertex -21.5192 -4.57406 -2
      vertex -2.29963 -21.8795 -2
      vertex -6.79837 -20.9232 -2
    endloop
  endfacet
  facet normal 0 0 -1
    outer loop
      vertex -21.5192 -4.57406 -2
      vertex -6.79837 -20.9232 -2
      vertex -11 -19.0526 -2
    endloop
  endfacet
  facet normal 0 0 -1
    outer loop
      vertex -21.5192 -4.57406 -2
      vertex -11 -19.0526 -2
      vertex -14.7209 -16.3492 -2
    endloop
  endfacet
  facet normal 0 0 -1
    outer loop
      vertex -21.5192 -4.57406 -2
      vertex -14.7209 -16.3492 -2
      vertex -17.7984 -12.9313 -2
    endloop
  endfacet
  facet normal 0 0 -1
    outer loop
      vertex -21.5192 -4.57406 -2
      vertex -17.7984 -12.9313 -2
      vertex -20.098 -8.94821 -2
    endloop
  endfacet
  facet normal -0.994522 0.104529 0
    outer loop
      vertex -22 0 -2
      vertex -22 0 8
      vertex -21.5192 4.57406 -2
    endloop
  endfacet
  facet normal -0.994522 0.104529 0
    outer loop
      vertex -21.5192 4.57406 -2
      vertex -22 0 8
      vertex -21.5192 4.57406 8
    endloop
  endfacet
  facet normal -0.994522 -0.104529 0
    outer loop
      vertex -22 0 -2
      vertex -21.5192 -4.57406 -2
      vertex -22 0 8
    endloop
  endfacet
  facet normal -0.994522 -0.104529 0
    outer loop
      vertex -22 0 8
      vertex -21.5192 -4.57406 -2
      vertex -21.5192 -4.57406 8
    endloop
  endfacet
  facet normal -0.951057 -0.309017 0
    outer loop
      vertex -21.5192 -4.57406 -2
      vertex -20.098 -8.94821 -2
      vertex -21.5192 -4.57406 8
    endloop
  endfacet
  facet normal -0.951057 -0.309017 0
    outer loop
      vertex -21.5192 -4.57406 8
      vertex -20.098 -8.94821 -2
      vertex -20.098 -8.94821 8
    endloop
  endfacet
  facet normal -0.866025 -0.5 0
    outer loop
      vertex -20.098 -8.94821 -2
      vertex -17.7984 -12.9313 -2
      vertex -20.098 -8.94821 8
    endloop
  endfacet
  facet normal -0.866025 -0.5 0
    outer loop
      vertex -20.098 -8.94821 8
      vertex -17.7984 -12.9313 -2
      vertex -17.7984 -12.9313 8
    endloop
  endfacet
  facet normal -0.743145 -0.669131 0
    outer loop
      vertex -17.7984 -12.9313 -2
      vertex -14.7209 -16.3492 -2
      vertex -17.7984 -12.9313 8
    endloop
  endfacet
  facet normal -0.743145 -0.669131 0
    outer loop
      vertex -17.7984 -12.9313 8
      vertex -14.7209 -16.3492 -2
      vertex -14.7209 -16.3492 8
    endloop
  endfacet
  facet normal -0.587785 -0.809017 0
    outer loop
      vertex -14.7209 -16.3492 8
      vertex -14.7209 -16.3492 -2
      vertex -11 -19.0526 -2
    endloop
  endfacet
  facet normal -0.587785 -0.809017 0
    outer loop
      vertex -11 -19.0526 8
      vertex -14.7209 -16.3492 8
      vertex -11 -19.0526 -2
    endloop
  endfacet
  facet normal -0.406737 -0.913545 0
    outer loop
      vertex -11 -19.0526 8
      vertex -11 -19.0526 -2
      vertex -6.79837 -20.9232 -2
    endloop
  endfacet
  facet normal -0.406737 -0.913545 0
    outer loop
      vertex -6.79837 -20.9232 8
      vertex -11 -19.0526 8
      vertex -6.79837 -20.9232 -2
    endloop
  endfacet
  facet normal -0.207912 -0.978148 0
    outer loop
      vertex -6.79837 -20.9232 8
      vertex -6.79837 -20.9232 -2
      vertex -2.29963 -21.8795 -2
    endloop
  endfacet
  facet normal -0.207912 -0.978148 0
    outer loop
      vertex -2.29963 -21.8795 8
      vertex -6.79837 -20.9232 8
      vertex -2.29963 -21.8795 -2
    endloop
  endfacet
  facet normal 0 -1 0
    outer loop
      vertex -2.29963 -21.8795 8
      vertex -2.29963 -21.8795 -2
      vertex 2.29963 -21.8795 -2
    endloop
  endfacet
  facet normal 0 -1 0
    outer loop
      vertex 2.29963 -21.8795 8
      vertex -2.29963 -21.8795 8
      vertex 2.29963 -21.8795 -2
    endloop
  endfacet
  facet normal 0.207912 -0.978148 0
    outer loop
      vertex 2.29963 -21.8795 8
      vertex 2.29963 -21.8795 -2
      vertex 6.79837 -20.9232 -2
    endloop
  endfacet
  facet normal 0.207912 -0.978148 0
    outer loop
      vertex 6.79837 -20.9232 8
      vertex 2.29963 -21.8795 8
      vertex 6.79837 -20.9232 -2
    endloop
  endfacet
  facet normal 0.406737 -0.913545 0
    outer loop
      vertex 6.79837 -20.9232 8
      vertex 6.79837 -20.9232 -2
      vertex 11 -19.0526 -2
    endloop
  endfacet
  facet normal 0.406737 -0.913545 0
    outer loop
      vertex 11 -19.0526 8
      vertex 6.79837 -20.9232 8
      vertex 11 -19.0526 -2
    endloop
  endfacet
  facet normal 0.587785 -0.809017 0
    outer loop
      vertex 11 -19.0526 8
      vertex 11 -19.0526 -2
      vertex 14.7209 -16.3492 -2
    endloop
  endfacet
  facet normal 0.587785 -0.809017 0
    outer loop
      vertex 14.7209 -16.3492 8
      vertex 11 -19.0526 8
      vertex 14.7209 -16.3492 -2
    endloop
  endfacet
  facet normal 0.743145 -0.669131 0
    outer loop
      vertex 14.7209 -16.3492 8
      vertex 14.7209 -16.3492 -2
      vertex 17.7984 -12.9313 -2
    endloop
  endfacet
  facet normal 0.743145 -0.669131 0
    outer loop
      vertex 17.7984 -12.9313 8
      vertex 14.7209 -16.3492 8
      vertex 17.7984 -12.9313 -2
    endloop
  endfacet
  facet normal 0.866025 -0.5 0
    outer loop
      vertex 17.7984 -12.9313 8
      vertex 17.7984 -12.9313 -2
      vertex 20.098 -8.94821 -2
    endloop
  endfacet
  facet normal 0.866025 -0.5 0
    outer loop
      vertex 20.098 -8.94821 8
      vertex 17.7984 -12.9313 8
      vertex 20.098 -8.94821 -2
    endloop
  endfacet
  facet normal 0.951057 -0.309017 0
    outer loop
      vertex 20.098 -8.94821 8
      vertex 20.098 -8.94821 -2
      vertex 21.5192 -4.57406 -2
    endloop
  endfacet
  facet normal 0.951057 -0.309017 0
    outer loop
      vertex 21.5192 -4.57406 8
      vertex 20.098 -8.94821 8
      vertex 21.5192 -4.57406 -2
    endloop
  endfacet
  facet normal 0.994522 -0.104529 0
    outer loop
      vertex 21.5192 -4.57406 8
      vertex 21.5192 -4.57406 -2
      vertex 22 0 -2
    endloop
  endfacet
  facet normal 0.994522 -0.104529 0
    outer loop
      vertex 22 0 8
      vertex 21.5192 -4.57406 8
      vertex 22 0 -2
    endloop
  endfacet
  facet normal 0.994522 0.104529 0
    outer loop
      vertex 22 0 -2
      vertex 21.5192 4.57406 -2
      vertex 21.5192 4.57406 8
    endloop
  endfacet
  facet normal 0.994522 0.104529 0
    outer loop
      vertex 22 0 8
      vertex 22 0 -2
      vertex 21.5192 4.57406 8
    endloop
  endfacet
  facet normal 0.951057 0.309017 0
    outer loop
      vertex 21.5192 4.57406 -2
      vertex 20.098 8.94821 -2
      vertex 20.098 8.94821 8
    endloop
  endfacet
  facet normal 0.951057 0.309017 0
    outer loop
      vertex 21.5192 4.57406 8
      vertex 21.5192 4.57406 -2
      vertex 20.098 8.94821 8
    endloop
  endfacet
  facet normal 0.866025 0.5 0
    outer loop
      vertex 20.098 8.94821 -2
      vertex 17.7984 12.9313 -2
      vertex 17.7984 12.9313 8
    endloop
  endfacet
  facet normal 0.866025 0.5 0
    outer loop
      vertex 20.098 8.94821 8
      vertex 20.098 8.94821 -2
      vertex 17.7984 12.9313 8
    endloop
  endfacet
  facet normal 0.743145 0.669131 0
    outer loop
      vertex 17.7984 12.9313 -2
      vertex 14.7209 16.3492 -2
      vertex 14.7209 16.3492 8
    endloop
  endfacet
  facet normal 0.743145 0.669131 0
    outer loop
      vertex 17.7984 12.9313 8
      vertex 17.7984 12.9313 -2
      vertex 14.7209 16.3492 8
    endloop
  endfacet
  facet normal 0.587785 0.809017 0
    outer loop
      vertex 11 19.0526 -2
      vertex 11 19.0526 8
      vertex 14.7209 16.3492 -2
    endloop
  endfacet
  facet normal 0.587785 0.809017 0
    outer loop
      vertex 14.7209 16.3492 -2
      vertex 11 19.0526 8
      vertex 14.7209 16.3492 8
    endloop
  endfacet
  facet normal 0.406737 0.913545 0
    outer loop
      vertex 6.79837 20.9232 -2
      vertex 6.79837 20.9232 8
      vertex 11 19.0526 -2
    endloop
  endfacet
  facet normal 0.406737 0.913545 0
    outer loop
      vertex 11 19.0526 -2
      vertex 6.79837 20.9232 8
      vertex 11 19.0526 8
    endloop
  endfacet
  facet normal 0.207912 0.978148 0
    outer loop
      vertex 2.29963 21.8795 -2
      vertex 2.29963 21.8795 8
      vertex 6.79837 20.9232 -2
    endloop
  endfacet
  facet normal 0.207912 0.978148 0
    outer loop
      vertex 6.79837 20.9232 -2
      vertex 2.29963 21.8795 8
      vertex 6.79837 20.9232 8
    endloop
  endfacet
  facet normal 0 1 0
    outer loop
      vertex -2.29963 21.8795 -2
      vertex -2.29963 21.8795 8
      vertex 2.29963 21.8795 -2
    endloop
  endfacet
  facet normal 0 1 0
    outer loop
      vertex 2.29963 21.8795 -2
      vertex -2.29963 21.8795 8
      vertex 2.29963 21.8795 8
    endloop
  endfacet
  facet normal -0.207912 0.978148 0
    outer loop
      vertex -6.79837 20.9232 -2
      vertex -6.79837 20.9232 8
      vertex -2.29963 21.8795 -2
    endloop
  endfacet
  facet normal -0.207912 0.978148 0
    outer loop
      vertex -2.29963 21.8795 -2
      vertex -6.79837 20.9232 8
      vertex -2.29963 21.8795 8
    endloop
  endfacet
  facet normal -0.406737 0.913545 0
    outer loop
      vertex -11 19.0526 -2
      vertex -11 19.0526 8
      vertex -6.79837 20.9232 -2
    endloop
  endfacet
  facet normal -0.406737 0.913545 0
    outer loop
      vertex -6.79837 20.9232 -2
      vertex -11 19.0526 8
      vertex -6.79837 20.9232 8
    endloop
  endfacet
  facet normal -0.587785 0.809017 0
    outer loop
      vertex -14.7209 16.3492 -2
      vertex -14.7209 16.3492 8
      vertex -11 19.0526 -2
    endloop
  endfacet
  facet normal -0.587785 0.809017 0
    outer loop
      vertex -11 19.0526 -2
      vertex -14.7209 16.3492 8
      vertex -11 19.0526 8
    endloop
  endfacet
  facet normal -0.743145 0.669131 0
    outer loop
      vertex -17.7984 12.9313 -2
      vertex -17.7984 12.9313 8
      vertex -14.7209 16.3492 -2
    endloop
  endfacet
  facet normal -0.743145 0.669131 0
    outer loop
      vertex -14.7209 16.3492 -2
      vertex -17.7984 12.9313 8
      vertex -14.7209 16.3492 8
    endloop
  endfacet
  facet normal -0.866025 0.5 0
    outer loop
      vertex -20.098 8.94821 -2
      vertex -20.098 8.94821 8
      vertex -17.7984 12.9313 -2
    endloop
  endfacet
  facet normal -0.866025 0.5 0
    outer loop
      vertex -17.7984 12.9313 -2
      vertex -20.098 8.94821 8
      vertex -17.7984 12.9313 8
    endloop
  endfacet
  facet normal -0.951057 0.309017 0
    outer loop
      vertex -21.5192 4.57406 -2
      vertex -21.5192 4.57406 8
      vertex -20.098 8.94821 -2
    endloop
  endfacet
  facet normal -0.951057 0.309017 0
    outer loop
      vertex -20.098 8.94821 -2
      vertex -21.5192 4.57406 8
      vertex -20.098 8.94821 8
    endloop
  endfacet
  facet normal 0 0 1
    outer loop
      vertex -21.5192 4.57406 8
      vertex -22 0 8
      vertex -21.5192 -4.57406 8
    endloop
  endfacet
  facet normal 0 0 1
    outer loop
      vertex -17.7984 -12.9313 8
      vertex -21.5192 4.57406 8
      vertex -20.098 -8.94821 8
    endloop
  endfacet
  facet normal 0 0 1
    outer loop
      vertex -20.098 -8.94821 8
      vertex -21.5192 4.57406 8
      vertex -21.5192 -4.57406 8
    endloop
  endfacet
  facet normal 0 0 1
    outer loop
      vertex -19.563 -4.15823 8
      vertex -21.5192 4.57406 8
      vertex -17.7984 -12.9313 8
    endloop
  endfacet
  facet normal 0 0 1
    outer loop
      vertex -19.563 4.15823 8
      vertex -18.2709 8.13473 8
      vertex -21.5192 4.57406 8
    endloop
  endfacet
  facet normal 0 0 1
    outer loop
      vertex -10 -17.3205 8
      vertex -13.3826 -14.8629 8
      vertex -11 -19.0526 8
    endloop
  endfacet
  facet normal 0 0 1
    outer loop
      vertex 18.2709 8.13473 8
      vertex 19.563 4.15823 8
      vertex 21.5192 4.57406 8
    endloop
  endfacet
  facet normal 0 0 1
    outer loop
      vertex 16.1803 11.7557 8
      vertex 18.2709 8.13473 8
      vertex 20.098 8.94821 8
    endloop
  endfacet
  facet normal 0 0 1
    outer loop
      vertex 13.3826 14.8629 8
      vertex 16.1803 11.7557 8
      vertex 17.7984 12.9313 8
    endloop
  endfacet
  facet normal 0 0 1
    outer loop
      vertex 10 17.3205 8
      vertex 13.3826 14.8629 8
      vertex 14.7209 16.3492 8
    endloop
  endfacet
  facet normal 0 0 1
    outer loop
      vertex 6.18034 19.0211 8
      vertex 10 17.3205 8
      vertex 11 19.0526 8
    endloop
  endfacet
  facet normal 0 0 1
    outer loop
      vertex -13.3826 14.8629 8
      vertex -10 17.3205 8
      vertex -6.79837 20.9232 8
    endloop
  endfacet
  facet normal 0 0 1
    outer loop
      vertex -6.18034 19.0211 8
      vertex -2.09057 19.8904 8
      vertex -2.29963 21.8795 8
    endloop
  endfacet
  facet normal 0 0 1
    outer loop
      vertex -14.7209 16.3492 8
      vertex -21.5192 4.57406 8
      vertex -11 19.0526 8
    endloop
  endfacet
  facet normal 0 0 1
    outer loop
      vertex -17.7984 12.9313 8
      vertex -21.5192 4.57406 8
      vertex -14.7209 16.3492 8
    endloop
  endfacet
  facet normal 0 0 1
    outer loop
      vertex -20.098 8.94821 8
      vertex -21.5192 4.57406 8
      vertex -17.7984 12.9313 8
    endloop
  endfacet
  facet normal 0 0 1
    outer loop
      vertex -18.2709 -8.13473 8
      vertex -19.563 -4.15823 8
      vertex -17.7984 -12.9313 8
    endloop
  endfacet
  facet normal 0 0 1
    outer loop
      vertex 18.2709 -8.13473 8
      vertex 16.1803 -11.7557 8
      vertex 20.098 -8.94821 8
    endloop
  endfacet
  facet normal 0 0 1
    outer loop
      vertex -2.09057 19.8904 8
      vertex 2.09057 19.8904 8
      vertex 2.29963 21.8795 8
    endloop
  endfacet
  facet normal 0 0 1
    outer loop
      vertex 19.563 4.15823 8
      vertex 20 0 8
      vertex 22 0 8
    endloop
  endfacet
  facet normal 0 0 1
    outer loop
      vertex -11 19.0526 8
      vertex -21.5192 4.57406 8
      vertex -16.1803 11.7557 8
    endloop
  endfacet
  facet normal 0 0 1
    outer loop
      vertex -11 19.0526 8
      vertex -13.3826 14.8629 8
      vertex -6.79837 20.9232 8
    endloop
  endfacet
  facet normal 0 0 1
    outer loop
      vertex -11 19.0526 8
      vertex -16.1803 11.7557 8
      vertex -13.3826 14.8629 8
    endloop
  endfacet
  facet normal 0 0 1
    outer loop
      vertex -6.79837 20.9232 8
      vertex -10 17.3205 8
      vertex -2.29963 21.8795 8
    endloop
  endfacet
  facet normal 0 0 1
    outer loop
      vertex -10 17.3205 8
      vertex -6.18034 19.0211 8
      vertex -2.29963 21.8795 8
    endloop
  endfacet
  facet normal 0 0 1
    outer loop
      vertex -2.29963 21.8795 8
      vertex -2.09057 19.8904 8
      vertex 2.29963 21.8795 8
    endloop
  endfacet
  facet normal 0 0 1
    outer loop
      vertex -18.2709 8.13473 8
      vertex -16.1803 11.7557 8
      vertex -21.5192 4.57406 8
    endloop
  endfacet
  facet normal 0 0 1
    outer loop
      vertex 2.29963 21.8795 8
      vertex 2.09057 19.8904 8
      vertex 6.79837 20.9232 8
    endloop
  endfacet
  facet normal 0 0 1
    outer loop
      vertex 6.79837 20.9232 8
      vertex 6.18034 19.0211 8
      vertex 11 19.0526 8
    endloop
  endfacet
  facet normal 0 0 1
    outer loop
      vertex 11 19.0526 8
      vertex 10 17.3205 8
      vertex 14.7209 16.3492 8
    endloop
  endfacet
  facet normal 0 0 1
    outer loop
      vertex 14.7209 16.3492 8
      vertex 13.3826 14.8629 8
      vertex 17.7984 12.9313 8
    endloop
  endfacet
  facet normal 0 0 1
    outer loop
      vertex 17.7984 12.9313 8
      vertex 16.1803 11.7557 8
      vertex 20.098 8.94821 8
    endloop
  endfacet
  facet normal 0 0 1
    outer loop
      vertex 20.098 8.94821 8
      vertex 18.2709 8.13473 8
      vertex 21.5192 4.57406 8
    endloop
  endfacet
  facet normal 0 0 1
    outer loop
      vertex 21.5192 4.57406 8
      vertex 19.563 4.15823 8
      vertex 22 0 8
    endloop
  endfacet
  facet normal 0 0 1
    outer loop
      vertex 22 0 8
      vertex 20 0 8
      vertex 21.5192 -4.57406 8
    endloop
  endfacet
  facet normal 0 0 1
    outer loop
      vertex 21.5192 -4.57406 8
      vertex 19.563 -4.15823 8
      vertex 20.098 -8.94821 8
    endloop
  endfacet
  facet normal 0 0 1
    outer loop
      vertex 2.09057 19.8904 8
      vertex 6.18034 19.0211 8
      vertex 6.79837 20.9232 8
    endloop
  endfacet
  facet normal 0 0 1
    outer loop
      vertex 19.563 -4.15823 8
      vertex 18.2709 -8.13473 8
      vertex 20.098 -8.94821 8
    endloop
  endfacet
  facet normal 0 0 1
    outer loop
      vertex 20.098 -8.94821 8
      vertex 16.1803 -11.7557 8
      vertex 17.7984 -12.9313 8
    endloop
  endfacet
  facet normal 0 0 1
    outer loop
      vertex 17.7984 -12.9313 8
      vertex 13.3826 -14.8629 8
      vertex 14.7209 -16.3492 8
    endloop
  endfacet
  facet normal 0 0 1
    outer loop
      vertex 14.7209 -16.3492 8
      vertex 10 -17.3205 8
      vertex 11 -19.0526 8
    endloop
  endfacet
  facet normal 0 0 1
    outer loop
      vertex 11 -19.0526 8
      vertex 6.18034 -19.0211 8
      vertex 6.79837 -20.9232 8
    endloop
  endfacet
  facet normal 0 0 1
    outer loop
      vertex 6.79837 -20.9232 8
      vertex 2.09057 -19.8904 8
      vertex 2.29963 -21.8795 8
    endloop
  endfacet
  facet normal 0 0 1
    outer loop
      vertex 2.29963 -21.8795 8
      vertex -2.09057 -19.8904 8
      vertex -2.29963 -21.8795 8
    endloop
  endfacet
  facet normal 0 0 1
    outer loop
      vertex -2.29963 -21.8795 8
      vertex -6.18034 -19.0211 8
      vertex -6.79837 -20.9232 8
    endloop
  endfacet
  facet normal 0 0 1
    outer loop
      vertex 20 0 8
      vertex 19.563 -4.15823 8
      vertex 21.5192 -4.57406 8
    endloop
  endfacet
  facet normal 0 0 1
    outer loop
      vertex -6.79837 -20.9232 8
      vertex -10 -17.3205 8
      vertex -11 -19.0526 8
    endloop
  endfacet
  facet normal 0 0 1
    outer loop
      vertex -11 -19.0526 8
      vertex -13.3826 -14.8629 8
      vertex -14.7209 -16.3492 8
    endloop
  endfacet
  facet normal 0 0 1
    outer loop
      vertex -13.3826 -14.8629 8
      vertex -16.1803 -11.7557 8
      vertex -14.7209 -16.3492 8
    endloop
  endfacet
  facet normal 0 0 1
    outer loop
      vertex -14.7209 -16.3492 8
      vertex -18.2709 -8.13473 8
      vertex -17.7984 -12.9313 8
    endloop
  endfacet
  facet normal 0 0 1
    outer loop
      vertex -19.563 -4.15823 8
      vertex -20 0 8
      vertex -21.5192 4.57406 8
    endloop
  endfacet
  facet normal 0 0 1
    outer loop
      vertex 16.1803 -11.7557 8
      vertex 13.3826 -14.8629 8
      vertex 17.7984 -12.9313 8
    endloop
  endfacet
  facet normal 0 0 1
    outer loop
      vertex 13.3826 -14.8629 8
      vertex 10 -17.3205 8
      vertex 14.7209 -16.3492 8
    endloop
  endfacet
  facet normal 0 0 1
    outer loop
      vertex 10 -17.3205 8
      vertex 6.18034 -19.0211 8
      vertex 11 -19.0526 8
    endloop
  endfacet
  facet normal 0 0 1
    outer loop
      vertex 6.18034 -19.0211 8
      vertex 2.09057 -19.8904 8
      vertex 6.79837 -20.9232 8
    endloop
  endfacet
  facet normal 0 0 1
    outer loop
      vertex 2.09057 -19.8904 8
      vertex -2.09057 -19.8904 8
      vertex 2.29963 -21.8795 8
    endloop
  endfacet
  facet normal 0 0 1
    outer loop
      vertex -2.09057 -19.8904 8
      vertex -6.18034 -19.0211 8
      vertex -2.29963 -21.8795 8
    endloop
  endfacet
  facet normal 0 0 1
    outer loop
      vertex -6.18034 -19.0211 8
      vertex -10 -17.3205 8
      vertex -6.79837 -20.9232 8
    endloop
  endfacet
  facet normal 0 0 1
    outer loop
      vertex -16.1803 -11.7557 8
      vertex -18.2709 -8.13473 8
      vertex -14.7209 -16.3492 8
    endloop
  endfacet
  facet normal 0 0 1
    outer loop
      vertex -20 0 8
      vertex -19.563 4.15823 8
      vertex -21.5192 4.57406 8
    endloop
  endfacet
  facet normal 0.994522 0.104528 0
    outer loop
      vertex -20 0 8
      vertex -19.563 -4.15823 8
      vertex -19.563 -4.15823 0
    endloop
  endfacet
  facet normal 0.994522 0.104528 0
    outer loop
      vertex -20 0 0
      vertex -20 0 8
      vertex -19.563 -4.15823 0
    endloop
  endfacet
  facet normal 0.951057 0.309017 0
    outer loop
      vertex -19.563 -4.15823 8
      vertex -18.2709 -8.13473 8
      vertex -18.2709 -8.13473 0
    endloop
  endfacet
  facet normal 0.951057 0.309017 0
    outer loop
      vertex -19.563 -4.15823 0
      vertex -19.563 -4.15823 8
      vertex -18.2709 -8.13473 0
    endloop
  endfacet
  facet normal 0.866025 0.5 0
    outer loop
      vertex -18.2709 -8.13473 8
      vertex -16.1803 -11.7557 8
      vertex -16.1803 -11.7557 0
    endloop
  endfacet
  facet normal 0.866025 0.5 0
    outer loop
      vertex -18.2709 -8.13473 0
      vertex -18.2709 -8.13473 8
      vertex -16.1803 -11.7557 0
    endloop
  endfacet
  facet normal 0.743145 0.669131 0
    outer loop
      vertex -16.1803 -11.7557 8
      vertex -13.3826 -14.8629 8
      vertex -13.3826 -14.8629 0
    endloop
  endfacet
  facet normal 0.743145 0.669131 0
    outer loop
      vertex -16.1803 -11.7557 0
      vertex -16.1803 -11.7557 8
      vertex -13.3826 -14.8629 0
    endloop
  endfacet
  facet normal 0.587785 0.809017 0
    outer loop
      vertex -10 -17.3205 8
      vertex -10 -17.3205 0
      vertex -13.3826 -14.8629 8
    endloop
  endfacet
  facet normal 0.587785 0.809017 0
    outer loop
      vertex -13.3826 -14.8629 8
      vertex -10 -17.3205 0
      vertex -13.3826 -14.8629 0
    endloop
  endfacet
  facet normal 0.406737 0.913545 0
    outer loop
      vertex -6.18034 -19.0211 8
      vertex -6.18034 -19.0211 0
      vertex -10 -17.3205 8
    endloop
  endfacet
  facet normal 0.406737 0.913545 0
    outer loop
      vertex -10 -17.3205 8
      vertex -6.18034 -19.0211 0
      vertex -10 -17.3205 0
    endloop
  endfacet
  facet normal 0.207912 0.978148 0
    outer loop
      vertex -2.09057 -19.8904 8
      vertex -2.09057 -19.8904 0
      vertex -6.18034 -19.0211 8
    endloop
  endfacet
  facet normal 0.207912 0.978148 0
    outer loop
      vertex -6.18034 -19.0211 8
      vertex -2.09057 -19.8904 0
      vertex -6.18034 -19.0211 0
    endloop
  endfacet
  facet normal 0 1 0
    outer loop
      vertex 2.09057 -19.8904 8
      vertex 2.09057 -19.8904 0
      vertex -2.09057 -19.8904 8
    endloop
  endfacet
  facet normal 0 1 0
    outer loop
      vertex -2.09057 -19.8904 8
      vertex 2.09057 -19.8904 0
      vertex -2.09057 -19.8904 0
    endloop
  endfacet
  facet normal -0.207912 0.978148 0
    outer loop
      vertex 6.18034 -19.0211 8
      vertex 6.18034 -19.0211 0
      vertex 2.09057 -19.8904 8
    endloop
  endfacet
  facet normal -0.207912 0.978148 0
    outer loop
      vertex 2.09057 -19.8904 8
      vertex 6.18034 -19.0211 0
      vertex 2.09057 -19.8904 0
    endloop
  endfacet
  facet normal -0.406737 0.913545 0
    outer loop
      vertex 10 -17.3205 8
      vertex 10 -17.3205 0
      vertex 6.18034 -19.0211 8
    endloop
  endfacet
  facet normal -0.406737 0.913545 0
    outer loop
      vertex 6.18034 -19.0211 8
      vertex 10 -17.3205 0
      vertex 6.18034 -19.0211 0
    endloop
  endfacet
  facet normal -0.587785 0.809017 0
    outer loop
      vertex 13.3826 -14.8629 8
      vertex 13.3826 -14.8629 0
      vertex 10 -17.3205 8
    endloop
  endfacet
  facet normal -0.587785 0.809017 0
    outer loop
      vertex 10 -17.3205 8
      vertex 13.3826 -14.8629 0
      vertex 10 -17.3205 0
    endloop
  endfacet
  facet normal -0.743145 0.669131 0
    outer loop
      vertex 16.1803 -11.7557 8
      vertex 16.1803 -11.7557 0
      vertex 13.3826 -14.8629 8
    endloop
  endfacet
  facet normal -0.743145 0.669131 0
    outer loop
      vertex 13.3826 -14.8629 8
      vertex 16.1803 -11.7557 0
      vertex 13.3826 -14.8629 0
    endloop
  endfacet
  facet normal -0.866025 0.5 0
    outer loop
      vertex 18.2709 -8.13473 8
      vertex 18.2709 -8.13473 0
      vertex 16.1803 -11.7557 8
    endloop
  endfacet
  facet normal -0.866025 0.5 0
    outer loop
      vertex 16.1803 -11.7557 8
      vertex 18.2709 -8.13473 0
      vertex 16.1803 -11.7557 0
    endloop
  endfacet
  facet normal -0.951057 0.309017 0
    outer loop
      vertex 19.563 -4.15823 8
      vertex 19.563 -4.15823 0
      vertex 18.2709 -8.13473 8
    endloop
  endfacet
  facet normal -0.951057 0.309017 0
    outer loop
      vertex 18.2709 -8.13473 8
      vertex 19.563 -4.15823 0
      vertex 18.2709 -8.13473 0
    endloop
  endfacet
  facet normal -0.994522 0.104528 0
    outer loop
      vertex 20 0 8
      vertex 20 0 0
      vertex 19.563 -4.15823 8
    endloop
  endfacet
  facet normal -0.994522 0.104528 0
    outer loop
      vertex 19.563 -4.15823 8
      vertex 20 0 0
      vertex 19.563 -4.15823 0
    endloop
  endfacet
  facet normal -0.994522 -0.104528 0
    outer loop
      vertex 20 0 8
      vertex 19.563 4.15823 8
      vertex 20 0 0
    endloop
  endfacet
  facet normal -0.994522 -0.104528 0
    outer loop
      vertex 20 0 0
      vertex 19.563 4.15823 8
      vertex 19.563 4.15823 0
    endloop
  endfacet
  facet normal -0.951057 -0.309017 0
    outer loop
      vertex 19.563 4.15823 8
      vertex 18.2709 8.13473 8
      vertex 19.563 4.15823 0
    endloop
  endfacet
  facet normal -0.951057 -0.309017 0
    outer loop
      vertex 19.563 4.15823 0
      vertex 18.2709 8.13473 8
      vertex 18.2709 8.13473 0
    endloop
  endfacet
  facet normal -0.866025 -0.5 0
    outer loop
      vertex 18.2709 8.13473 8
      vertex 16.1803 11.7557 8
      vertex 18.2709 8.13473 0
    endloop
  endfacet
  facet normal -0.866025 -0.5 0
    outer loop
      vertex 18.2709 8.13473 0
      vertex 16.1803 11.7557 8
      vertex 16.1803 11.7557 0
    endloop
  endfacet
  facet normal -0.743145 -0.669131 0
    outer loop
      vertex 16.1803 11.7557 8
      vertex 13.3826 14.8629 8
      vertex 16.1803 11.7557 0
    endloop
  endfacet
  facet normal -0.743145 -0.669131 0
    outer loop
      vertex 16.1803 11.7557 0
      vertex 13.3826 14.8629 8
      vertex 13.3826 14.8629 0
    endloop
  endfacet
  facet normal -0.587785 -0.809017 0
    outer loop
      vertex 13.3826 14.8629 0
      vertex 13.3826 14.8629 8
      vertex 10 17.3205 8
    endloop
  endfacet
  facet normal -0.587785 -0.809017 0
    outer loop
      vertex 10 17.3205 0
      vertex 13.3826 14.8629 0
      vertex 10 17.3205 8
    endloop
  endfacet
  facet normal -0.406737 -0.913545 0
    outer loop
      vertex 10 17.3205 0
      vertex 10 17.3205 8
      vertex 6.18034 19.0211 8
    endloop
  endfacet
  facet normal -0.406737 -0.913545 0
    outer loop
      vertex 6.18034 19.0211 0
      vertex 10 17.3205 0
      vertex 6.18034 19.0211 8
    endloop
  endfacet
  facet normal -0.207912 -0.978148 0
    outer loop
      vertex 6.18034 19.0211 0
      vertex 6.18034 19.0211 8
      vertex 2.09057 19.8904 8
    endloop
  endfacet
  facet normal -0.207912 -0.978148 0
    outer loop
      vertex 2.09057 19.8904 0
      vertex 6.18034 19.0211 0
      vertex 2.09057 19.8904 8
    endloop
  endfacet
  facet normal 0 -1 0
    outer loop
      vertex 2.09057 19.8904 0
      vertex 2.09057 19.8904 8
      vertex -2.09057 19.8904 8
    endloop
  endfacet
  facet normal 0 -1 0
    outer loop
      vertex -2.09057 19.8904 0
      vertex 2.09057 19.8904 0
      vertex -2.09057 19.8904 8
    endloop
  endfacet
  facet normal 0.207912 -0.978148 0
    outer loop
      vertex -2.09057 19.8904 0
      vertex -2.09057 19.8904 8
      vertex -6.18034 19.0211 8
    endloop
  endfacet
  facet normal 0.207912 -0.978148 0
    outer loop
      vertex -6.18034 19.0211 0
      vertex -2.09057 19.8904 0
      vertex -6.18034 19.0211 8
    endloop
  endfacet
  facet normal 0.406737 -0.913545 0
    outer loop
      vertex -6.18034 19.0211 0
      vertex -6.18034 19.0211 8
      vertex -10 17.3205 8
    endloop
  endfacet
  facet normal 0.406737 -0.913545 0
    outer loop
      vertex -10 17.3205 0
      vertex -6.18034 19.0211 0
      vertex -10 17.3205 8
    endloop
  endfacet
  facet normal 0.587785 -0.809017 0
    outer loop
      vertex -10 17.3205 0
      vertex -10 17.3205 8
      vertex -13.3826 14.8629 8
    endloop
  endfacet
  facet normal 0.587785 -0.809017 0
    outer loop
      vertex -13.3826 14.8629 0
      vertex -10 17.3205 0
      vertex -13.3826 14.8629 8
    endloop
  endfacet
  facet normal 0.743145 -0.669131 0
    outer loop
      vertex -13.3826 14.8629 0
      vertex -13.3826 14.8629 8
      vertex -16.1803 11.7557 8
    endloop
  endfacet
  facet normal 0.743145 -0.669131 0
    outer loop
      vertex -16.1803 11.7557 0
      vertex -13.3826 14.8629 0
      vertex -16.1803 11.7557 8
    endloop
  endfacet
  facet normal 0.866025 -0.5 0
    outer loop
      vertex -16.1803 11.7557 0
      vertex -16.1803 11.7557 8
      vertex -18.2709 8.13473 8
    endloop
  endfacet
  facet normal 0.866025 -0.5 0
    outer loop
      vertex -18.2709 8.13473 0
      vertex -16.1803 11.7557 0
      vertex -18.2709 8.13473 8
    endloop
  endfacet
  facet normal 0.951057 -0.309017 0
    outer loop
      vertex -18.2709 8.13473 0
      vertex -18.2709 8.13473 8
      vertex -19.563 4.15823 8
    endloop
  endfacet
  facet normal 0.951057 -0.309017 0
    outer loop
      vertex -19.563 4.15823 0
      vertex -18.2709 8.13473 0
      vertex -19.563 4.15823 8
    endloop
  endfacet
  facet normal 0.994522 -0.104528 0
    outer loop
      vertex -19.563 4.15823 0
      vertex -19.563 4.15823 8
      vertex -20 0 8
    endloop
  endfacet
  facet normal 0.994522 -0.104528 0
    outer loop
      vertex -20 0 0
      vertex -19.563 4.15823 0
      vertex -20 0 8
    endloop
  endfacet
  facet normal 0 0 1
    outer loop
      vertex -19.563 -4.15823 0
      vertex -18.2709 -8.13473 0
      vertex -16.1803 -11.7557 0
    endloop
  endfacet
  facet normal 0 0 1
    outer loop
      vertex -10 -17.3205 0
      vertex -19.563 -4.15823 0
      vertex -13.3826 -14.8629 0
    endloop
  endfacet
  facet normal 0 0 1
    outer loop
      vertex -13.3826 -14.8629 0
      vertex -19.563 -4.15823 0
      vertex -16.1803 -11.7557 0
    endloop
  endfacet
  facet normal 0 0 1
    outer loop
      vertex -6.18034 -19.0211 0
      vertex -19.563 -4.15823 0
      vertex -10 -17.3205 0
    endloop
  endfacet
  facet normal 0 0 1
    outer loop
      vertex -2.09057 -19.8904 0
      vertex -19.563 -4.15823 0
      vertex -6.18034 -19.0211 0
    endloop
  endfacet
  facet normal 0 0 1
    outer loop
      vertex 2.09057 -19.8904 0
      vertex -19.563 -4.15823 0
      vertex -2.09057 -19.8904 0
    endloop
  endfacet
  facet normal 0 0 1
    outer loop
      vertex 6.18034 -19.0211 0
      vertex -19.563 -4.15823 0
      vertex 2.09057 -19.8904 0
    endloop
  endfacet
  facet normal 0 0 1
    outer loop
      vertex 10 -17.3205 0
      vertex -19.563 -4.15823 0
      vertex 6.18034 -19.0211 0
    endloop
  endfacet
  facet normal 0 0 1
    outer loop
      vertex 13.3826 -14.8629 0
      vertex -19.563 -4.15823 0
      vertex 10 -17.3205 0
    endloop
  endfacet
  facet normal 0 0 1
    outer loop
      vertex 16.1803 -11.7557 0
      vertex -19.563 -4.15823 0
      vertex 13.3826 -14.8629 0
    endloop
  endfacet
  facet normal 0 0 1
    outer loop
      vertex 18.2709 -8.13473 0
      vertex -19.563 -4.15823 0
      vertex 16.1803 -11.7557 0
    endloop
  endfacet
  facet normal 0 0 1
    outer loop
      vertex 19.563 -4.15823 0
      vertex -19.563 -4.15823 0
      vertex 18.2709 -8.13473 0
    endloop
  endfacet
  facet normal 0 0 1
    outer loop
      vertex 20 0 0
      vertex -19.563 -4.15823 0
      vertex 19.563 -4.15823 0
    endloop
  endfacet
  facet normal 0 0 1
    outer loop
      vertex 19.563 4.15823 0
      vertex -19.563 -4.15823 0
      vertex 20 0 0
    endloop
  endfacet
  facet normal 0 0 1
    outer loop
      vertex 18.2709 8.13473 0
      vertex -19.563 -4.15823 0
      vertex 19.563 4.15823 0
    endloop
  endfacet
  facet normal 0 0 1
    outer loop
      vertex 16.1803 11.7557 0
      vertex -19.563 -4.15823 0
      vertex 18.2709 8.13473 0
    endloop
  endfacet
  facet normal 0 0 1
    outer loop
      vertex 13.3826 14.8629 0
      vertex -19.563 -4.15823 0
      vertex 16.1803 11.7557 0
    endloop
  endfacet
  facet normal 0 0 1
    outer loop
      vertex 10 17.3205 0
      vertex -19.563 -4.15823 0
      vertex 13.3826 14.8629 0
    endloop
  endfacet
  facet normal 0 0 1
    outer loop
      vertex 6.18034 19.0211 0
      vertex -19.563 -4.15823 0
      vertex 10 17.3205 0
    endloop
  endfacet
  facet normal 0 0 1
    outer loop
      vertex 2.09057 19.8904 0
      vertex -19.563 -4.15823 0
      vertex 6.18034 19.0211 0
    endloop
  endfacet
  facet normal 0 0 1
    outer loop
      vertex -2.09057 19.8904 0
      vertex -19.563 -4.15823 0
      vertex 2.09057 19.8904 0
    endloop
  endfacet
  facet normal 0 0 1
    outer loop
      vertex -6.18034 19.0211 0
      vertex -19.563 -4.15823 0
      vertex -2.09057 19.8904 0
    endloop
  endfacet
  facet normal 0 0 1
    outer loop
      vertex -10 17.3205 0
      vertex -19.563 -4.15823 0
      vertex -6.18034 19.0211 0
    endloop
  endfacet
  facet normal 0 0 1
    outer loop
      vertex -13.3826 14.8629 0
      vertex -19.563 -4.15823 0
      vertex -10 17.3205 0
    endloop
  endfacet
  facet normal 0 0 1
    outer loop
      vertex -16.1803 11.7557 0
      vertex -19.563 -4.15823 0
      vertex -13.3826 14.8629 0
    endloop
  endfacet
  facet normal 0 0 1
    outer loop
      vertex -18.2709 8.13473 0
      vertex -19.563 -4.15823 0
      vertex -16.1803 11.7557 0
    endloop
  endfacet
  facet normal 0 0 1
    outer loop
      vertex -19.563 4.15823 0
      vertex -19.563 -4.15823 0
      vertex -18.2709 8.13473 0
    endloop
  endfacet
  facet normal 0 0 1
    outer loop
      vertex -20 0 0
      vertex -19.563 -4.15823 0
      vertex -19.563 4.15823 0
    endloop
  endfacet
endsolid OpenSCAD_Model
