<?xml version="1.0" encoding="UTF-8" standalone="no"?>
<!-- Created with Inkscape (http://www.inkscape.org/) -->

<svg
   xmlns:dc="http://purl.org/dc/elements/1.1/"
   xmlns:cc="http://creativecommons.org/ns#"
   xmlns:rdf="http://www.w3.org/1999/02/22-rdf-syntax-ns#"
   xmlns:svg="http://www.w3.org/2000/svg"
   xmlns="http://www.w3.org/2000/svg"
   xmlns:sodipodi="http://sodipodi.sourceforge.net/DTD/sodipodi-0.dtd"
   xmlns:inkscape="http://www.inkscape.org/namespaces/inkscape"
   id="svg2"
   version="1.1"
   inkscape:version="0.48.3.1 r9886"
   width="259.09"
   height="288.85126"
   xml:space="preserve"
   sodipodi:docname="logo_3dm.svg"><metadata
     id="metadata8"><rdf:RDF><cc:Work
         rdf:about=""><dc:format>image/svg+xml</dc:format><dc:type
           rdf:resource="http://purl.org/dc/dcmitype/StillImage" /><dc:title /></cc:Work></rdf:RDF></metadata><defs
     id="defs6"><clipPath
       clipPathUnits="userSpaceOnUse"
       id="clipPath20"><path
         d="m 149.882,257.271 -16.436,0 -27.58,0 0,-0.083 -37.966,0 c -9.656,0 -16.16,-1.815 -19.485,-5.497 l 0,0 c -3.318,-3.664 -4.988,-10.433 -4.988,-20.323 l 0,0 0,-0.637 23.443,-12.456 0,12.456 0,8.78 54.362,-0.034 c 4.082,0 6.802,-0.983 8.16,-2.866 l 0,0 c 1.358,-1.917 2.038,-5.972 2.039,-12.112 l 0,0 0,-7.737 c 0,-6.259 -0.68,-10.315 -2.037,-12.231 l 0,0 c -1.36,-1.935 -4.079,-2.867 -8.161,-2.867 l 0,0 -35.949,0 0,-7.344 0,-7.344 35.949,0 c 4.082,0 6.801,-0.933 8.161,-2.868 l 0,0 c 1.357,-1.917 2.037,-5.97 2.037,-12.231 l 0,0 0,-7.736 c 0,-6.14 -0.68,-10.196 -2.037,-12.112 l 0,0 c -1.36,-1.883 -4.079,-2.866 -8.161,-2.866 l 0,0 -54.363,0.034 0,7.376 0,14.225 -23.443,-12.501 0,-0.064 0,-56.992 0,-49.402 c 0,-5.281 0.707,-9.697 2.1,-13.125 l 0,0 c 1.308,-3.221 3.185,-5.562 5.737,-7.16 l 0,0 c 5.637,-3.56 16.652,-5.364 32.752,-5.364 l 0,0 20.407,0 c 12.331,0 21.536,1.436 27.356,4.266 l 0,0 c 5.62,2.717 9.59,7.234 12.144,13.817 l 0,0 3.141,8.089 3.139,-8.089 c 2.555,-6.583 6.526,-11.1 12.144,-13.817 l 0,0 c 5.822,-2.83 15.026,-4.266 27.356,-4.266 l 0,0 20.408,0 c 16.099,0 27.116,1.804 32.752,5.364 l 0,0 c 2.553,1.598 4.428,3.939 5.737,7.16 l 0,0 c 1.394,3.428 2.099,7.844 2.099,13.125 l 0,0 0,39.554 0,28.323 0,74.604 -0.008,0 c 0.002,0.26 0.008,0.517 0.008,0.778 l 0,0 c 0,11.043 -1.89,21.194 -5.681,30.487 l 0,0 c -3.791,9.294 -8.987,16.596 -15.595,21.924 l 0,0 c -4.338,3.415 -9.63,5.892 -15.88,7.447 l 0,0 c -6.25,1.539 -14.104,2.315 -23.56,2.315 l 0,0 -40.101,0 z m 6.333,-17.146 31.34,0 c 16.387,0 28.074,-3.514 35.068,-10.541 l 0,0 c 6.996,-7.027 10.494,-18.522 10.494,-34.486 l 0,0 c 0,-16.515 -3.432,-28.351 -10.297,-35.492 l 0,0 c -6.867,-7.156 -18.621,-10.733 -35.265,-10.733 l 0,0 -31.34,0 0,91.252 z m 43.379,-108.448 -0.104,-0.137 24.418,0.002 3.35,0 0,-3.213 0,-71.544 c -0.002,-7.55 -3.631,-10.952 -6.678,-12.477 l 0,0 -0.01,-0.006 -0.011,-0.004 C 216.728,42.415 209.695,41.54 198.422,41.54 l 0,0 -13.164,0 c -11.414,0 -18.512,0.875 -22.33,2.752 l 0,0 c -4.455,2.17 -6.713,6.373 -6.713,12.493 l 0,0 0,39.206 -9.15,0 -0.001,0 -0.001,0 -9.152,0 0,-39.206 c 0,-6.12 -2.258,-10.323 -6.712,-12.493 l 0,0 c -3.817,-1.877 -10.917,-2.752 -22.33,-2.752 l 0,0 -13.163,0 c -11.273,0 -18.308,0.875 -22.136,2.758 l 0,0 -0.012,0.004 -0.012,0.006 c -3.045,1.525 -6.675,4.927 -6.676,12.477 l 0,0 0,71.544 0,3.129 c 0.339,-0.004 0.682,-0.006 1.03,-0.006 l 0,0 55.331,0 4.905,-0.008 -0.069,0 c 15.083,0 18.997,-15.298 18.997,-15.298 l 0,0 c 0,0 3.671,14.349 17.604,15.256 l 0,0 25.315,-0.032 c 3.413,0 6.615,0.104 9.611,0.307"
         id="path22"
         inkscape:connector-curvature="0" /></clipPath><radialGradient
       fx="0"
       fy="0"
       cx="0"
       cy="0"
       r="1"
       gradientUnits="userSpaceOnUse"
       gradientTransform="matrix(-30.251038,105.49791,105.49791,30.251038,147.06348,141.73047)"
       spreadMethod="pad"
       id="radialGradient32"><stop
         style="stop-opacity:0;stop-color:#ffffff"
         offset="0"
         id="stop34" /><stop
         style="stop-opacity:0.6512398;stop-color:#ffffff"
         offset="0.52121"
         id="stop36" /><stop
         style="stop-opacity:0.95001144;stop-color:#ffffff"
         offset="1"
         id="stop38" /></radialGradient><mask
       maskUnits="userSpaceOnUse"
       x="0"
       y="0"
       width="1"
       height="1"
       id="mask40"><g
         id="g42"><g
           id="g44"><g
             id="g46"><g
               id="g48"><path
                 d="m -32767,32767 65534,0 0,-65534 -65534,0 0,65534 z"
                 style="fill:url(#radialGradient32);stroke:none"
                 id="path50"
                 inkscape:connector-curvature="0" /></g></g></g></g></mask><radialGradient
       fx="0"
       fy="0"
       cx="0"
       cy="0"
       r="1"
       gradientUnits="userSpaceOnUse"
       gradientTransform="matrix(-30.251038,105.49791,105.49791,30.251038,147.06348,141.73047)"
       spreadMethod="pad"
       id="radialGradient56"><stop
         style="stop-opacity:1;stop-color:#2f2c2d"
         offset="0"
         id="stop58" /><stop
         style="stop-opacity:1;stop-color:#2f2c2d"
         offset="1"
         id="stop60" /></radialGradient></defs><sodipodi:namedview
     pagecolor="#ffffff"
     bordercolor="#666666"
     borderopacity="1"
     objecttolerance="10"
     gridtolerance="10"
     guidetolerance="10"
     inkscape:pageopacity="0"
     inkscape:pageshadow="2"
     inkscape:window-width="1852"
     inkscape:window-height="1040"
     id="namedview4"
     showgrid="false"
     inkscape:zoom="1.3321103"
     inkscape:cx="24.453742"
     inkscape:cy="73.045108"
     inkscape:window-x="0"
     inkscape:window-y="27"
     inkscape:window-maximized="0"
     inkscape:current-layer="g24"
     fit-margin-top="0"
     fit-margin-left="0"
     fit-margin-right="0"
     fit-margin-bottom="0" /><g
     id="g10"
     inkscape:groupmode="layer"
     inkscape:label="logo 3dM ultimate"
     transform="matrix(1.25,0,0,-1.25,-54.28375,321.58875)"><g
       id="g12"
       transform="translate(43.4272,183.0117)"><path
         d="m 0,0 23.443,3.97 0,15.079 L 0,23.005 0,0 z"
         style="fill:#236f46;fill-opacity:1;fill-rule:nonzero;stroke:none"
         id="path14"
         inkscape:connector-curvature="0" /></g><g
       id="g16"><g
         id="g18"
         clip-path="url(#clipPath20)"
         style="fill:#000000"><g
           id="g24"
           style="fill:#000000"><g
             id="g26"
             style="fill:#000000" /><g
             id="g52"
             mask="url(#mask40)"
             style="fill:#000000"><g
               id="g54"
               style="fill:#000000"><path
                 d="m 149.882,257.271 -16.436,0 -27.58,0 0,-0.083 -37.966,0 c -9.656,0 -16.16,-1.815 -19.485,-5.497 l 0,0 c -3.318,-3.664 -4.988,-10.433 -4.988,-20.323 l 0,0 0,-0.637 23.443,-12.456 0,12.456 0,8.78 54.362,-0.034 c 4.082,0 6.802,-0.983 8.16,-2.866 l 0,0 c 1.358,-1.917 2.038,-5.972 2.039,-12.112 l 0,0 0,-7.737 c 0,-6.259 -0.68,-10.315 -2.037,-12.231 l 0,0 c -1.36,-1.935 -4.079,-2.867 -8.161,-2.867 l 0,0 -35.949,0 0,-7.344 0,-7.344 35.949,0 c 4.082,0 6.801,-0.933 8.161,-2.868 l 0,0 c 1.357,-1.917 2.037,-5.97 2.037,-12.231 l 0,0 0,-7.736 c 0,-6.14 -0.68,-10.196 -2.037,-12.112 l 0,0 c -1.36,-1.883 -4.079,-2.866 -8.161,-2.866 l 0,0 -54.363,0.034 0,7.376 0,14.225 -23.443,-12.501 0,-0.064 0,-56.992 0,-49.402 c 0,-5.281 0.707,-9.697 2.1,-13.125 l 0,0 c 1.308,-3.221 3.185,-5.562 5.737,-7.16 l 0,0 c 5.637,-3.56 16.652,-5.364 32.752,-5.364 l 0,0 20.407,0 c 12.331,0 21.536,1.436 27.356,4.266 l 0,0 c 5.62,2.717 9.59,7.234 12.144,13.817 l 0,0 3.141,8.089 3.139,-8.089 c 2.555,-6.583 6.526,-11.1 12.144,-13.817 l 0,0 c 5.822,-2.83 15.026,-4.266 27.356,-4.266 l 0,0 20.408,0 c 16.099,0 27.116,1.804 32.752,5.364 l 0,0 c 2.553,1.598 4.428,3.939 5.737,7.16 l 0,0 c 1.394,3.428 2.099,7.844 2.099,13.125 l 0,0 0,39.554 0,28.323 0,74.604 -0.008,0 c 0.002,0.26 0.008,0.517 0.008,0.778 l 0,0 c 0,11.043 -1.89,21.194 -5.681,30.487 l 0,0 c -3.791,9.294 -8.987,16.596 -15.595,21.924 l 0,0 c -4.338,3.415 -9.63,5.892 -15.88,7.447 l 0,0 c -6.25,1.539 -14.104,2.315 -23.56,2.315 l 0,0 -40.101,0 z m 6.333,-17.146 31.34,0 c 16.387,0 28.074,-3.514 35.068,-10.541 l 0,0 c 6.996,-7.027 10.494,-18.522 10.494,-34.486 l 0,0 c 0,-16.515 -3.432,-28.351 -10.297,-35.492 l 0,0 c -6.867,-7.156 -18.621,-10.733 -35.265,-10.733 l 0,0 -31.34,0 0,91.252 z m 43.379,-108.448 -0.104,-0.137 24.418,0.002 3.35,0 0,-3.213 0,-71.544 c -0.002,-7.55 -3.631,-10.952 -6.678,-12.477 l 0,0 -0.01,-0.006 -0.011,-0.004 C 216.728,42.415 209.695,41.54 198.422,41.54 l 0,0 -13.164,0 c -11.414,0 -18.512,0.875 -22.33,2.752 l 0,0 c -4.455,2.17 -6.713,6.373 -6.713,12.493 l 0,0 0,39.206 -9.15,0 -0.001,0 -0.001,0 -9.152,0 0,-39.206 c 0,-6.12 -2.258,-10.323 -6.712,-12.493 l 0,0 c -3.817,-1.877 -10.917,-2.752 -22.33,-2.752 l 0,0 -13.163,0 c -11.273,0 -18.308,0.875 -22.136,2.758 l 0,0 -0.012,0.004 -0.012,0.006 c -3.045,1.525 -6.675,4.927 -6.676,12.477 l 0,0 0,71.544 0,3.129 c 0.339,-0.004 0.682,-0.006 1.03,-0.006 l 0,0 55.331,0 4.905,-0.008 -0.069,0 c 15.083,0 18.997,-15.298 18.997,-15.298 l 0,0 c 0,0 3.671,14.349 17.604,15.256 l 0,0 25.315,-0.032 c 3.413,0 6.615,0.104 9.611,0.307"
                 style="fill:#000000;fill-opacity:1;stroke:none"
                 id="path62"
                 inkscape:connector-curvature="0" /></g></g></g></g></g></g></svg>